<?xml version="1.0" standalone="no"?>
<!DOCTYPE svg PUBLIC "-//W3C//DTD SVG 20010904//EN"
 "http://www.w3.org/TR/2001/REC-SVG-20010904/DTD/svg10.dtd">
<svg version="1.0" xmlns="http://www.w3.org/2000/svg"
 width="300.000000pt" height="113.000000pt" viewBox="0 0 300.000000 113.000000"
 preserveAspectRatio="xMidYMid meet">

<g transform="translate(0.000000,113.000000) scale(0.100000,-0.100000)"
fill="#000000" stroke="none">
<path d="M1885 1097 c-19 -47 -144 -87 -270 -87 -93 0 -225 -19 -270 -39 -41
-18 -95 -73 -94 -94 0 -7 6 -3 12 8 46 75 103 95 121 42 24 -68 -93 -167 -118
-101 -9 23 -26 6 -26 -24 0 -21 3 -23 10 -12 13 20 23 6 15 -21 -6 -16 -9 -18
-16 -8 -5 8 -8 -17 -7 -60 l0 -73 16 32 c22 45 83 87 145 99 29 6 120 15 202
20 162 10 223 26 266 67 24 23 45 64 32 64 -2 0 -15 -13 -29 -29 -38 -46 -90
-60 -254 -71 -226 -15 -282 -29 -337 -83 -37 -35 -44 -21 -12 24 43 61 98 77
321 94 131 10 187 18 220 33 45 20 80 53 92 87 5 15 -1 12 -26 -12 -52 -50
-93 -62 -255 -73 -81 -6 -154 -13 -161 -15 -17 -6 -28 25 -12 35 7 4 71 11
143 15 193 10 271 35 303 96 23 44 17 46 -24 6 -50 -49 -101 -64 -253 -72 -68
-3 -136 -9 -151 -11 -23 -5 -28 -2 -28 14 0 24 33 32 134 32 97 0 200 16 252
39 44 20 79 61 71 83 -3 9 -7 8 -12 -5z m-457 -140 c2 -10 -3 -17 -11 -17 -16
0 -30 24 -19 34 10 10 27 1 30 -17z m0 -90 c2 -10 -3 -17 -12 -17 -18 0 -29
16 -21 31 9 14 29 6 33 -14z"/>
<path d="M1298 898 c-22 -22 -22 -23 -3 -27 11 -2 23 -8 27 -15 9 -14 37 21
38 47 0 24 -35 22 -62 -5z"/>
<path d="M1879 814 c-44 -49 -97 -64 -251 -74 -170 -12 -220 -18 -273 -37 -77
-27 -112 -78 -113 -163 0 -46 1 -51 10 -30 33 86 144 129 333 130 156 0 270
35 305 92 29 47 25 58 -8 21 -45 -48 -86 -64 -194 -74 -337 -31 -350 -33 -403
-83 -49 -46 -46 -15 3 34 51 51 112 67 302 79 202 13 265 33 306 96 23 35 13
41 -17 9z"/>
<path d="M455 735 c-14 -13 -25 -33 -25 -43 0 -25 39 -37 54 -16 9 11 18 12
46 4 48 -14 95 -13 108 3 6 6 13 24 17 38 5 22 3 27 -17 32 -13 4 -28 1 -36
-7 -12 -11 -21 -11 -59 0 -60 18 -60 18 -88 -11z"/>
<path d="M1864 671 c-48 -45 -93 -57 -249 -66 -219 -13 -302 -36 -349 -97 -24
-33 -26 -41 -26 -146 l0 -112 55 0 55 0 0 54 0 53 58 6 c113 10 158 56 150
154 l-5 53 39 0 c21 0 38 -2 38 -4 0 -3 -25 -64 -56 -138 -31 -73 -60 -143
-65 -155 -8 -22 -6 -23 47 -23 53 0 55 1 70 35 l14 35 73 0 73 0 13 -35 c12
-35 13 -35 71 -35 l58 0 -65 153 c-83 193 -83 191 -44 207 31 12 91 72 91 90
0 14 -1 14 -46 -29z m-441 -130 c30 -12 42 -43 27 -71 -8 -15 -21 -20 -55 -20
l-45 0 0 44 c0 54 20 67 73 47z m326 -128 c1 -9 -13 -13 -39 -13 -22 0 -40 2
-40 4 0 2 10 26 21 53 l21 48 18 -40 c10 -22 19 -46 19 -52z"/>
<path d="M90 622 c-67 -36 -89 -133 -40 -177 11 -10 55 -30 98 -44 62 -21 77
-30 77 -46 0 -29 -52 -31 -114 -4 l-51 22 -23 -29 c-12 -16 -22 -33 -22 -39 0
-19 83 -55 142 -61 131 -14 219 77 169 175 -15 29 -58 51 -141 73 -39 11 -50
18 -50 33 0 27 50 32 101 10 l39 -16 28 33 28 33 -21 17 c-49 40 -163 50 -220
20z"/>
<path d="M487 628 c-3 -7 -37 -89 -77 -183 -40 -93 -74 -176 -77 -182 -4 -10
10 -13 51 -13 54 0 56 1 70 35 l15 35 71 0 70 0 17 -35 c16 -34 18 -35 74 -35
l57 0 -82 193 -82 192 -51 3 c-34 2 -52 -1 -56 -10z m87 -206 c7 -20 4 -22
-33 -22 -23 0 -41 2 -41 4 0 2 9 26 21 53 l21 48 13 -31 c7 -17 16 -40 19 -52z"/>
<path d="M829 617 c-24 -13 -57 -43 -74 -66 -26 -37 -30 -51 -30 -111 0 -60 4
-74 30 -111 42 -59 94 -84 175 -84 75 0 116 19 163 77 53 66 50 181 -6 245
-64 73 -173 94 -258 50z m153 -88 c27 -14 51 -74 43 -109 -20 -90 -139 -110
-180 -30 -24 46 -19 87 14 121 32 31 84 39 123 18z"/>
<path d="M1903 624 c-3 -8 -4 -71 -1 -139 6 -145 22 -187 83 -219 52 -27 149
-27 195 0 68 40 75 59 78 225 l3 150 -53 -3 -53 -3 -5 -135 c-5 -133 -5 -134
-32 -149 -20 -12 -34 -13 -55 -6 -43 16 -53 47 -53 178 l0 117 -50 0 c-37 0
-52 -4 -57 -16z"/>
<path d="M2290 445 l0 -195 145 0 145 0 0 45 0 44 -92 3 -93 3 -3 148 -3 147
-49 0 -50 0 0 -195z"/>
<path d="M2693 621 c-52 -24 -100 -88 -108 -145 -29 -193 211 -311 350 -172
98 99 74 256 -48 315 -55 27 -137 27 -194 2z m154 -93 c51 -42 52 -120 2 -162
-41 -35 -80 -33 -121 3 -75 66 -20 192 76 176 16 -3 35 -10 43 -17z"/>
<path d="M70 193 c-39 -14 -60 -46 -60 -93 0 -35 5 -52 23 -68 30 -28 69 -36
111 -22 38 12 51 36 44 81 -3 21 -9 24 -43 24 -30 0 -41 -4 -43 -17 -2 -12 3
-18 16 -18 26 0 34 -11 21 -27 -16 -19 -53 -16 -72 5 -47 51 15 129 72 93 10
-7 19 -4 27 7 10 14 9 19 -9 29 -23 13 -61 15 -87 6z"/>
<path d="M261 186 c-87 -48 -50 -186 50 -186 51 0 98 47 99 98 0 44 -14 68
-50 87 -35 18 -67 19 -99 1z m89 -46 c11 -11 20 -29 20 -40 0 -25 -34 -60 -58
-60 -32 0 -55 25 -55 60 0 56 54 79 93 40z"/>
<path d="M410 193 c1 -4 17 -48 38 -98 49 -119 62 -119 108 -6 37 93 41 111
20 111 -19 0 -30 -17 -51 -77 -11 -29 -21 -50 -24 -47 -3 3 -15 31 -27 62 -15
42 -26 58 -42 60 -12 2 -22 0 -22 -5z"/>
<path d="M622 104 l3 -96 70 0 c56 0 71 3 73 16 3 13 -6 16 -52 16 -49 0 -56
2 -56 20 0 17 7 20 45 20 38 0 45 3 45 20 0 17 -7 20 -45 20 -38 0 -45 3 -45
20 0 17 7 20 50 20 43 0 50 3 50 20 0 18 -7 20 -70 20 l-71 0 3 -96z"/>
<path d="M790 107 c0 -72 3 -96 14 -100 19 -8 26 1 26 35 0 38 22 36 53 -5 14
-19 34 -33 46 -33 26 0 26 1 0 38 -19 26 -20 30 -6 41 26 20 31 60 9 87 -15
19 -31 24 -81 28 l-61 4 0 -95z m108 29 c5 -22 -13 -36 -45 -36 -19 0 -23 5
-23 31 0 28 2 30 32 27 23 -2 34 -9 36 -22z"/>
<path d="M974 187 c-3 -8 -4 -52 -2 -98 2 -67 6 -84 18 -84 11 0 16 15 20 59
l5 59 47 -61 c66 -85 78 -78 78 44 0 87 -2 94 -20 94 -16 0 -19 -8 -22 -57
l-3 -58 -44 58 c-43 56 -67 70 -77 44z"/>
<path d="M1224 190 c-56 -22 -72 -108 -30 -157 20 -23 32 -28 70 -28 36 0 51
6 73 27 77 77 -11 199 -113 158z m78 -47 c34 -30 12 -103 -31 -103 -29 0 -61
30 -61 57 0 54 54 81 92 46z"/>
<path d="M1445 188 c-3 -8 -5 -52 -3 -98 l3 -84 55 2 c33 2 65 10 79 21 48 34
47 108 -1 144 -34 26 -125 36 -133 15z m103 -44 c32 -22 27 -73 -9 -93 -42
-23 -59 -9 -59 47 0 27 3 52 7 55 11 12 38 8 61 -9z"/>
<path d="M1691 186 c-87 -48 -50 -186 50 -186 28 0 77 27 89 49 5 11 10 34 10
51 0 42 -15 67 -50 85 -35 18 -67 19 -99 1z m89 -46 c11 -11 20 -29 20 -40 0
-25 -34 -60 -57 -60 -40 0 -68 45 -54 83 16 41 59 49 91 17z"/>
<path d="M1920 103 l0 -98 70 3 c52 3 70 7 70 18 0 10 -14 14 -50 14 -43 0
-50 3 -50 20 0 17 7 20 45 20 38 0 45 3 45 20 0 17 -7 20 -45 20 -38 0 -45 3
-45 20 0 17 7 20 51 20 43 0 50 3 47 18 -3 14 -16 18 -71 20 l-67 3 0 -98z"/>
<path d="M2112 188 c-30 -15 -40 -55 -18 -76 9 -10 31 -22 49 -28 38 -13 50
-44 17 -44 -12 0 -31 5 -42 11 -16 9 -23 8 -29 -2 -14 -22 -11 -27 27 -39 44
-15 79 -6 100 24 22 34 5 62 -52 87 -25 10 -42 23 -39 29 8 13 48 13 62 -1 8
-8 14 -6 22 9 8 16 6 21 -15 31 -30 13 -52 13 -82 -1z"/>
<path d="M2247 194 c-17 -17 -6 -34 23 -34 l29 0 3 -77 c3 -64 6 -77 21 -79
15 -2 17 7 17 77 l0 79 31 0 c24 0 30 4 27 18 -3 14 -16 18 -74 20 -38 1 -73
0 -77 -4z"/>
<path d="M2441 178 c-5 -13 -23 -55 -39 -95 -29 -68 -29 -71 -11 -76 15 -4 23
1 29 19 8 20 16 24 48 24 31 0 41 -5 50 -24 10 -22 28 -29 42 -16 3 3 -13 47
-34 98 -29 70 -43 92 -58 92 -10 0 -23 -10 -27 -22z m49 -80 c0 -4 -9 -8 -21
-8 -15 0 -19 4 -15 16 3 9 6 21 6 27 1 13 30 -22 30 -35z"/>
<path d="M2600 103 l0 -98 37 2 c21 1 48 2 59 2 12 1 33 13 48 27 30 31 35 86
11 121 -17 24 -71 43 -122 43 l-33 0 0 -97z m110 37 c11 -11 20 -29 20 -40 0
-28 -35 -60 -65 -60 -24 0 -25 3 -25 60 0 57 1 60 25 60 14 0 34 -9 45 -20z"/>
<path d="M2850 187 c-14 -7 -33 -29 -43 -50 -18 -36 -18 -38 0 -75 48 -97 188
-68 188 40 0 33 -6 45 -33 69 -35 31 -71 37 -112 16z m82 -44 c36 -32 12 -103
-35 -103 -49 0 -75 64 -40 102 20 22 51 23 75 1z"/>
</g>
</svg>
