<?xml version="1.0" standalone="no"?>
<!DOCTYPE svg PUBLIC "-//W3C//DTD SVG 20010904//EN"
 "http://www.w3.org/TR/2001/REC-SVG-20010904/DTD/svg10.dtd">
<svg version="1.0" xmlns="http://www.w3.org/2000/svg"
 width="48.000000pt" height="48.000000pt" viewBox="0 0 48.000000 48.000000"
 preserveAspectRatio="xMidYMid meet">

<g transform="translate(0.000000,48.000000) scale(0.100000,-0.100000)"
fill="#000000" stroke="none">
<path d="M76 464 c-9 -8 -16 -26 -16 -40 0 -16 -6 -24 -18 -24 -38 0 -42 -18
-42 -192 0 -225 -19 -208 240 -208 187 0 201 1 220 20 19 19 20 33 20 224 0
173 -2 207 -16 220 -23 24 -365 24 -388 0z m372 -221 l-3 -208 -205 0 -205 0
0 169 c0 125 3 170 12 173 9 3 13 -34 15 -154 4 -227 22 -201 26 37 l2 190
180 0 180 0 -2 -207z"/>
<path d="M127 413 c-4 -3 -7 -33 -7 -65 l0 -58 65 0 65 0 0 65 0 65 -58 0
c-32 0 -62 -3 -65 -7z m101 -60 c-3 -36 -5 -38 -40 -41 l-38 -3 0 40 0 41 41
0 40 0 -3 -37z"/>
<path d="M317 383 c18 -2 50 -2 70 0 21 2 7 4 -32 4 -38 0 -55 -2 -38 -4z"/>
<path d="M317 333 c18 -2 50 -2 70 0 21 2 7 4 -32 4 -38 0 -55 -2 -38 -4z"/>
<path d="M317 293 c18 -2 50 -2 70 0 21 2 7 4 -32 4 -38 0 -55 -2 -38 -4z"/>
<path d="M193 243 c42 -2 112 -2 155 0 42 1 7 3 -78 3 -85 0 -120 -2 -77 -3z"/>
<path d="M193 203 c42 -2 112 -2 155 0 42 1 7 3 -78 3 -85 0 -120 -2 -77 -3z"/>
<path d="M147 153 c18 -2 50 -2 70 0 21 2 7 4 -32 4 -38 0 -55 -2 -38 -4z"/>
<path d="M317 153 c18 -2 50 -2 70 0 21 2 7 4 -32 4 -38 0 -55 -2 -38 -4z"/>
<path d="M147 113 c18 -2 50 -2 70 0 21 2 7 4 -32 4 -38 0 -55 -2 -38 -4z"/>
<path d="M317 113 c18 -2 50 -2 70 0 21 2 7 4 -32 4 -38 0 -55 -2 -38 -4z"/>
<path d="M147 63 c18 -2 50 -2 70 0 21 2 7 4 -32 4 -38 0 -55 -2 -38 -4z"/>
<path d="M317 63 c18 -2 50 -2 70 0 21 2 7 4 -32 4 -38 0 -55 -2 -38 -4z"/>
</g>
</svg>
