<?xml version="1.0" standalone="no"?>
<!DOCTYPE svg PUBLIC "-//W3C//DTD SVG 20010904//EN"
 "http://www.w3.org/TR/2001/REC-SVG-20010904/DTD/svg10.dtd">
<svg version="1.0" xmlns="http://www.w3.org/2000/svg"
 width="2242.000000pt" height="1389.000000pt" viewBox="0 0 2242.000000 1389.000000"
 preserveAspectRatio="xMidYMid meet">

<g transform="translate(0.000000,1389.000000) scale(0.100000,-0.100000)"
fill="#000000" stroke="none">
<path d="M6855 13499 c-691 -142 -1043 -228 -1382 -340 -702 -231 -1331 -532
-1910 -916 l-173 -114 0 -689 0 -689 138 88 c587 377 1237 687 2002 956 l205
72 130 164 c125 159 1158 1471 1178 1497 5 6 8 12 6 11 -2 -1 -89 -19 -194
-40z"/>
<path d="M10560 11960 c-279 -14 -548 -31 -646 -40 -50 -5 -188 -14 -305 -20
-1157 -57 -2344 -307 -3646 -767 l-213 -75 0 -1273 0 -1272 153 59 c779 303
1751 533 2657 628 419 44 578 52 1050 56 l465 3 617 725 c339 399 848 993
1131 1318 296 342 509 596 503 599 -12 7 -321 34 -566 49 -218 14 -990 20
-1200 10z"/>
<path d="M8370 8374 c-787 -93 -1615 -277 -2299 -509 -181 -61 -490 -180 -623
-239 l-58 -26 0 -505 0 -505 53 21 c492 194 1210 351 1837 400 80 6 145 12
146 13 2 2 1036 1270 1077 1319 l39 47 -29 -1 c-15 -1 -80 -7 -143 -15z"/>
<path d="M18346 6443 c-8 -38 -74 -338 -146 -668 -72 -330 -133 -606 -136
-614 -3 -9 -29 10 -77 56 -92 87 -146 124 -251 174 -322 150 -750 101 -1045
-121 -309 -234 -511 -654 -551 -1150 -6 -74 -8 -173 -5 -220 36 -495 266 -814
642 -892 122 -25 304 -20 428 11 173 45 336 150 460 299 33 40 61 69 62 65 2
-5 -10 -81 -26 -170 l-28 -163 288 0 289 0 4 23 c3 12 13 69 22 127 39 249 90
492 388 1858 174 793 316 1444 316 1447 0 3 -139 5 -309 5 l-309 0 -16 -67z
m-734 -1491 c118 -58 207 -181 244 -338 25 -106 15 -347 -19 -477 -86 -325
-278 -562 -517 -638 -45 -14 -94 -21 -156 -22 -80 -1 -98 3 -147 26 -134 66
-211 219 -232 458 -25 295 118 705 312 890 108 105 200 140 349 136 90 -2 107
-6 166 -35z"/>
<path d="M11700 5934 c-78 -124 -144 -232 -147 -240 -4 -12 27 -14 191 -14
l196 0 255 236 c140 130 255 238 255 240 0 2 -137 4 -304 4 l-305 0 -141 -226z"/>
<path d="M10351 5469 c-219 -43 -435 -198 -560 -401 -28 -45 -51 -78 -51 -73
0 8 66 370 74 408 4 16 -15 17 -293 17 l-297 0 -27 -152 c-14 -84 -120 -612
-236 -1174 -116 -561 -211 -1026 -211 -1032 0 -9 77 -12 308 -12 l308 0 118
568 c65 312 132 610 148 662 100 316 285 523 524 585 75 19 240 19 323 0 35
-9 66 -13 68 -11 10 10 131 592 124 599 -20 21 -237 32 -320 16z"/>
<path d="M11580 5474 c-19 -2 -78 -9 -130 -15 -129 -15 -259 -42 -407 -86
-102 -29 -124 -40 -128 -57 -11 -52 -84 -470 -82 -472 1 -2 52 17 112 41 223
89 385 124 610 132 220 7 358 -28 449 -115 61 -58 76 -101 76 -218 0 -56 -3
-115 -6 -131 l-6 -29 -331 -12 c-183 -7 -372 -19 -422 -26 -349 -52 -574 -145
-722 -297 -70 -72 -85 -93 -122 -168 -54 -106 -73 -198 -74 -346 -2 -217 49
-352 183 -485 85 -86 175 -136 306 -172 109 -29 354 -32 459 -4 186 49 339
152 504 341 41 47 51 54 47 35 -10 -45 -56 -314 -56 -327 0 -10 54 -13 260
-13 143 0 260 3 260 8 0 30 55 327 131 710 133 672 153 798 153 972 0 165 -13
229 -70 346 -91 186 -279 310 -554 365 -92 18 -361 32 -440 23z m410 -1349 c0
-9 -16 -66 -36 -128 -122 -380 -315 -546 -635 -547 -158 0 -255 44 -307 140
-21 40 -23 55 -20 130 3 73 9 94 38 148 60 112 178 191 350 231 129 31 207 38
418 40 166 1 192 -1 192 -14z"/>
<path d="M14151 5469 c-220 -28 -402 -137 -554 -329 -25 -32 -27 -33 -22 -10
38 174 57 258 61 273 5 16 -13 17 -289 17 l-295 0 -6 -42 c-4 -24 -12 -72 -17
-108 -9 -54 -639 -3116 -653 -3173 -4 -16 14 -17 307 -15 l312 3 132 645 c72
355 133 654 135 665 2 14 17 -9 45 -68 77 -160 208 -264 398 -313 86 -23 346
-26 440 -6 222 48 398 139 552 285 293 278 463 724 463 1210 0 242 -34 400
-123 572 -55 106 -190 244 -292 297 -173 90 -384 124 -594 97z m116 -513 c112
-51 196 -162 229 -303 22 -92 14 -349 -15 -480 -79 -361 -251 -601 -481 -674
-93 -30 -235 -30 -311 0 -188 72 -283 315 -251 638 41 413 239 740 506 835 40
14 74 18 156 15 90 -2 114 -7 167 -31z"/>
<path d="M19635 5469 c-131 -12 -364 -60 -494 -101 l-105 -33 -43 -245 c-23
-134 -41 -245 -39 -248 2 -2 18 4 36 13 119 62 380 135 554 156 124 15 332 6
406 -16 125 -39 213 -110 238 -193 12 -41 14 -205 3 -257 l-6 -30 -320 -6
c-322 -6 -392 -12 -585 -50 -419 -83 -665 -275 -746 -584 -28 -109 -26 -316 5
-415 38 -122 77 -188 160 -271 86 -86 172 -134 307 -171 106 -29 356 -32 453
-5 181 49 265 101 427 262 l130 130 -28 -160 c-15 -88 -29 -168 -32 -177 -4
-17 13 -18 259 -18 l262 0 17 113 c10 61 60 326 111 587 154 778 176 934 157
1095 -50 402 -348 617 -876 630 -83 2 -196 -1 -251 -6z m475 -1338 c0 -4 -14
-55 -31 -112 -116 -392 -316 -568 -645 -569 -108 0 -177 18 -236 63 -66 51
-88 97 -88 189 0 109 27 177 99 249 94 93 243 152 451 178 89 11 450 13 450 2z"/>
<path d="M7850 5449 c-132 -9 -282 -40 -432 -89 -187 -61 -170 -43 -188 -214
-9 -80 -15 -146 -14 -146 1 0 45 21 100 46 231 108 444 160 629 151 226 -10
371 -106 435 -289 25 -72 37 -247 26 -369 l-7 -75 -87 9 c-123 12 -526 1 -647
-18 -515 -82 -797 -263 -902 -580 -23 -70 -26 -96 -27 -215 0 -121 3 -144 27
-217 87 -262 322 -434 612 -450 327 -18 608 102 787 335 l51 67 -7 -38 c-9
-50 -36 -267 -36 -289 0 -16 12 -18 144 -18 l145 0 5 43 c22 185 49 353 75
472 50 231 161 801 176 909 31 214 15 421 -42 566 -94 237 -311 386 -588 405
-44 3 -91 7 -105 9 -14 1 -72 -1 -130 -5z m507 -1233 c7 -6 -25 -171 -48 -251
-102 -352 -286 -583 -538 -675 -406 -148 -767 76 -713 441 42 283 294 443 767
489 86 8 523 5 532 -4z"/>
<path d="M15336 4253 c-138 -643 -252 -1176 -254 -1185 -4 -17 15 -18 307 -18
l311 0 5 23 c24 103 495 2321 495 2333 0 12 -46 14 -308 14 l-307 0 -249
-1167z"/>
<path d="M4330 5378 c0 -25 297 -2270 305 -2305 5 -23 7 -23 183 -23 l177 0
653 1169 c358 643 652 1171 652 1175 0 3 -73 6 -163 6 l-162 0 -540 -1015
c-297 -558 -542 -1015 -545 -1015 -3 0 -64 456 -135 1013 l-131 1012 -147 3
-147 3 0 -23z"/>
<path d="M6526 5392 c-4 -7 -496 -2322 -496 -2335 0 -4 69 -7 153 -7 l152 0
244 1153 c135 633 247 1162 249 1175 l4 22 -150 0 c-83 0 -153 -3 -156 -8z"/>
<path d="M5750 2350 c-213 -27 -405 -123 -561 -281 -168 -170 -284 -401 -333
-668 -21 -110 -21 -319 0 -419 60 -293 248 -500 521 -574 118 -32 315 -30 444
5 286 75 515 277 659 580 149 312 170 659 58 933 -66 161 -210 303 -373 371
-115 47 -286 69 -415 53z m205 -467 c57 -29 94 -69 124 -133 24 -52 26 -64 26
-205 0 -180 -17 -253 -97 -414 -60 -122 -147 -220 -238 -267 -49 -26 -65 -29
-150 -29 -78 0 -102 4 -135 22 -131 70 -180 235 -140 469 50 286 202 509 388
570 59 19 171 13 222 -13z"/>
<path d="M4291 2255 c-161 -46 -297 -89 -302 -97 -10 -16 -12 -169 -2 -297 4
-70 10 -94 22 -101 11 -5 64 3 149 22 73 17 135 29 137 26 3 -2 -76 -306 -175
-676 -99 -369 -180 -678 -180 -686 0 -30 38 -36 244 -36 159 0 208 3 218 14
14 13 509 1844 508 1878 0 31 -35 38 -182 37 l-143 -1 -294 -83z"/>
<path d="M8944 1790 c-52 -17 -120 -56 -201 -115 l-22 -17 15 54 c7 29 14 59
14 66 0 9 -43 12 -182 12 l-183 0 -168 -633 c-92 -347 -170 -642 -174 -655
l-5 -22 184 0 185 0 102 383 c57 210 113 405 126 433 51 115 142 178 255 178
74 0 118 -19 154 -67 17 -23 21 -42 20 -100 0 -58 -18 -140 -97 -432 -54 -198
-100 -368 -103 -377 -5 -17 8 -18 180 -18 167 0 185 2 190 18 26 85 200 750
213 810 45 218 -27 393 -192 469 -81 37 -220 43 -311 13z"/>
<path d="M10105 1795 c-248 -54 -465 -247 -555 -494 -114 -313 -8 -635 257
-774 105 -54 178 -71 323 -71 104 -1 138 3 200 23 137 42 225 96 325 196 93
93 140 161 182 265 99 247 54 526 -113 696 -72 73 -191 136 -299 159 -85 18
-239 18 -320 0z m265 -326 c202 -88 210 -398 15 -595 -80 -81 -148 -108 -255
-102 -85 5 -137 27 -186 80 -60 63 -69 92 -69 214 0 107 1 112 38 186 102 207
282 292 457 217z"/>
<path d="M11372 1790 c-181 -49 -293 -157 -337 -327 -28 -107 -14 -206 42
-285 39 -58 144 -127 283 -189 150 -66 190 -97 190 -146 0 -52 -50 -98 -115
-107 -116 -16 -275 36 -387 127 l-57 46 -104 -112 c-122 -130 -123 -116 8
-202 98 -64 190 -101 315 -127 233 -49 480 16 595 156 75 91 117 239 96 336
-28 132 -99 199 -325 309 -89 44 -170 89 -181 101 -27 30 -25 83 4 114 71 75
243 54 397 -49 l65 -44 99 117 100 117 -25 20 c-56 46 -141 90 -238 123 -91
31 -115 36 -227 39 -101 3 -139 -1 -198 -17z"/>
<path d="M7335 1784 c-96 -17 -242 -60 -250 -74 -5 -7 42 -275 49 -287 1 -1
36 9 78 22 156 50 342 56 434 15 65 -28 86 -69 81 -153 -2 -38 -8 -72 -13 -77
-5 -4 -42 0 -83 11 -487 125 -873 -82 -849 -457 9 -136 81 -240 203 -295 69
-31 228 -38 311 -14 80 23 140 55 196 104 25 23 48 41 51 41 3 0 -3 -32 -13
-70 l-18 -70 179 0 178 0 10 38 c142 529 191 718 201 769 17 83 8 204 -19 274
-42 111 -160 195 -314 224 -98 19 -304 18 -412 -1z m272 -758 c50 -16 51 -17
43 -46 -27 -94 -111 -194 -200 -240 -53 -27 -153 -37 -203 -21 -20 7 -50 28
-67 47 -25 29 -30 43 -30 85 0 28 5 60 11 72 27 52 84 97 149 118 40 13 239 3
297 -15z"/>
</g>
</svg>
