<?xml version="1.0" standalone="no"?>
<!DOCTYPE svg PUBLIC "-//W3C//DTD SVG 20010904//EN"
 "http://www.w3.org/TR/2001/REC-SVG-20010904/DTD/svg10.dtd">
<svg version="1.0" xmlns="http://www.w3.org/2000/svg"
 width="451.000000pt" height="422.000000pt" viewBox="0 0 451.000000 422.000000"
 preserveAspectRatio="xMidYMid meet">

<g transform="translate(0.000000,422.000000) scale(0.100000,-0.100000)"
fill="#000000" stroke="none">
<path d="M2369 4106 c-3 -3 -52 -14 -109 -26 -262 -53 -499 -122 -678 -196
-153 -63 -432 -210 -448 -236 -11 -17 3 -19 19 -4 9 9 23 13 31 10 20 -8 21
-24 1 -24 -8 0 -15 -4 -15 -10 0 -14 13 -13 28 2 9 9 15 9 24 0 10 -10 10 -15
0 -21 -11 -7 -10 -9 2 -14 9 -4 16 -15 16 -26 0 -10 16 -42 35 -71 19 -29 35
-58 35 -65 0 -18 51 -95 64 -96 6 -1 19 -1 29 0 29 3 19 -18 -15 -33 -26 -11
-28 -15 -12 -15 11 -1 42 10 70 23 61 29 230 96 351 139 l92 32 246 309 c135
170 245 313 245 318 0 9 -4 10 -11 4z m-1164 -435 c-3 -6 -11 -11 -16 -11 -5
0 -4 6 3 14 14 16 24 13 13 -3z m35 -21 c0 -5 -7 -7 -15 -4 -8 4 -15 8 -15 10
0 2 7 4 15 4 8 0 15 -4 15 -10z m160 -305 c0 -15 -21 -12 -30 5 -11 20 -10 21
9 10 12 -6 21 -13 21 -15z"/>
<path d="M3565 3490 c-55 -4 -172 -13 -260 -20 -224 -16 -453 -51 -658 -100
-226 -53 -296 -73 -291 -82 3 -4 -10 -8 -28 -9 -18 0 -53 -9 -78 -20 -25 -11
-34 -17 -20 -13 14 4 39 7 57 8 17 1 29 4 27 8 -3 4 8 7 23 6 15 0 37 2 48 4
11 3 14 3 8 1 -22 -7 -27 -52 -9 -72 9 -10 16 -25 16 -35 0 -9 6 -19 14 -22 8
-3 22 -17 31 -31 14 -21 15 -27 4 -34 -11 -7 -11 -9 2 -9 16 0 33 -32 30 -58
-1 -7 5 -19 14 -28 8 -8 15 -22 15 -30 0 -8 4 -14 9 -14 5 0 11 -10 13 -22 2
-15 10 -23 23 -23 13 0 27 -14 42 -45 24 -49 28 -70 13 -70 -13 0 34 -45 55
-54 10 -3 15 -12 11 -21 -9 -23 13 -75 30 -68 8 3 14 0 14 -6 0 -6 -4 -11 -10
-11 -23 0 -8 -26 21 -37 28 -11 31 -15 26 -43 -4 -17 -2 -30 3 -30 6 0 10 4
10 10 0 5 8 6 17 3 11 -4 12 -8 5 -11 -17 -5 4 -41 31 -52 20 -8 18 -9 -10 -9
-18 -1 -33 -5 -33 -10 0 -5 15 -7 33 -5 152 18 298 27 504 31 l242 5 223 261
c123 144 317 369 431 500 115 131 206 241 204 244 -20 20 -631 29 -852 13z"/>
<path d="M2750 2460 c0 -5 4 -10 9 -10 6 0 13 5 16 10 3 6 -1 10 -9 10 -9 0
-16 -4 -16 -10z"/>
<path d="M2660 2419 c-23 -5 -10 -5 35 -2 39 3 72 7 74 9 7 7 -72 2 -109 -7z"/>
<path d="M2910 2122 c-91 -7 -410 -66 -549 -101 -200 -50 -471 -140 -471 -157
0 -5 6 -4 59 11 15 5 21 3 17 -3 -3 -6 -1 -14 6 -18 9 -6 5 -10 -12 -14 -21
-5 -17 -8 23 -14 43 -7 46 -9 37 -27 -8 -15 -7 -23 5 -35 8 -8 15 -22 15 -30
0 -8 12 -27 26 -41 20 -20 23 -28 12 -34 -9 -6 -7 -9 10 -9 12 0 22 -4 22 -10
0 -5 -5 -10 -11 -10 -6 0 -1 -12 11 -27 l22 -28 -24 -6 -23 -7 25 -1 c14 -1
61 5 105 13 44 8 116 17 160 20 178 14 137 -15 370 267 113 138 205 254 203
257 -2 4 -19 6 -38 4z"/>
<path d="M1850 1850 c-9 -6 -10 -10 -3 -10 6 0 15 5 18 10 8 12 4 12 -15 0z"/>
</g>
</svg>
