<?xml version="1.0" standalone="no"?>
<!DOCTYPE svg PUBLIC "-//W3C//DTD SVG 20010904//EN"
 "http://www.w3.org/TR/2001/REC-SVG-20010904/DTD/svg10.dtd">
<svg version="1.0" xmlns="http://www.w3.org/2000/svg"
 width="48.000000pt" height="48.000000pt" viewBox="0 0 48.000000 48.000000"
 preserveAspectRatio="xMidYMid meet">

<g transform="translate(0.000000,48.000000) scale(0.100000,-0.100000)"
fill="#000000" stroke="none">
<path d="M30 240 l0 -180 35 0 c24 0 35 5 35 15 0 8 -9 15 -20 15 -19 0 -20 7
-20 105 l0 105 180 0 180 0 0 -105 c0 -98 -1 -105 -20 -105 -11 0 -20 -7 -20
-15 0 -10 11 -15 35 -15 l35 0 0 180 0 180 -210 0 -210 0 0 -180z m390 120 l0
-30 -180 0 -180 0 0 30 0 30 180 0 180 0 0 -30z"/>
<path d="M90 360 c0 -5 7 -10 15 -10 8 0 15 5 15 10 0 6 -7 10 -15 10 -8 0
-15 -4 -15 -10z"/>
<path d="M140 360 c0 -5 5 -10 10 -10 6 0 10 5 10 10 0 6 -4 10 -10 10 -5 0
-10 -4 -10 -10z"/>
<path d="M180 360 c0 -5 7 -10 15 -10 8 0 15 5 15 10 0 6 -7 10 -15 10 -8 0
-15 -4 -15 -10z"/>
<path d="M202 207 c-31 -32 -41 -57 -23 -57 5 0 15 7 22 17 12 14 15 6 19 -63
4 -61 8 -79 20 -79 12 0 16 18 20 79 4 69 7 77 19 63 16 -20 31 -22 31 -4 0
12 -60 77 -71 77 -3 0 -19 -15 -37 -33z"/>
<path d="M150 75 c0 -33 4 -45 15 -45 11 0 15 12 15 45 0 33 -4 45 -15 45 -11
0 -15 -12 -15 -45z"/>
<path d="M300 75 c0 -33 4 -45 15 -45 11 0 15 12 15 45 0 33 -4 45 -15 45 -11
0 -15 -12 -15 -45z"/>
</g>
</svg>
